<svg id="Layer_1" data-name="Layer 1" xmlns="http://www.w3.org/2000/svg" width="180" height="41" viewBox="0 0 180 41"><defs><style>.cls-1{fill:#dd1b57;}</style></defs><title>spl-small</title><path class="cls-1" d="M12.92,26.41h.44A16.06,16.06,0,0,0,14.5,30,10.51,10.51,0,0,0,16,32.49,6.84,6.84,0,0,0,17.8,34a7.6,7.6,0,0,0,1.86.76,8.92,8.92,0,0,0,1.8.28q.86,0,1.62,0a8.2,8.2,0,0,0,3.48-.64,6.07,6.07,0,0,0,2.16-1.62,5.83,5.83,0,0,0,1.12-2.12,7.81,7.81,0,0,0,.32-2.1,5.15,5.15,0,0,0-.52-2.4,5.79,5.79,0,0,0-1.32-1.7,7.42,7.42,0,0,0-1.74-1.14,12.09,12.09,0,0,0-1.78-.68l-4.6-1.4a11.85,11.85,0,0,1-4.9-2.64,5.9,5.9,0,0,1-1.66-4.4,8.62,8.62,0,0,1,.64-3.34,7.82,7.82,0,0,1,1.8-2.66,8.38,8.38,0,0,1,2.78-1.76,9.56,9.56,0,0,1,3.54-.64A9.63,9.63,0,0,1,24.74,6a10.46,10.46,0,0,1,1.62.54l1.22.54a2.69,2.69,0,0,0,1.1.24,1.22,1.22,0,0,0,.7-.14,2.7,2.7,0,0,0,.5-.7h.56v7.24H30A11.93,11.93,0,0,0,29.14,11a8.6,8.6,0,0,0-1.5-2.36A7,7,0,0,0,25.42,7a7,7,0,0,0-3-.62,9.76,9.76,0,0,0-2.12.26,6.7,6.7,0,0,0-2.16.9,5.4,5.4,0,0,0-1.66,1.68,4.85,4.85,0,0,0-.66,2.64A4.29,4.29,0,0,0,16.32,14a5,5,0,0,0,1.34,1.52,8.21,8.21,0,0,0,1.84,1q1,.42,2.06.74l4.84,1.52,1.92.64a8.63,8.63,0,0,1,2.26,1.2,7,7,0,0,1,1.88,2.12,6.53,6.53,0,0,1,.78,3.36,9.32,9.32,0,0,1-.7,3.58,9,9,0,0,1-2,3,9.93,9.93,0,0,1-3.2,2.08,11,11,0,0,1-4.24.78l-1.48,0a11.13,11.13,0,0,1-1.2-.1l-1.12-.18A11.8,11.8,0,0,1,18,35q-.8-.24-1.72-.56a5,5,0,0,0-1.6-.32,1.09,1.09,0,0,0-.82.24,2.05,2.05,0,0,0-.38.64h-.6Z"/><path class="cls-1" d="M33.8,34.45h4.44V7.09H33.8V6.53h7.52l1.12,0,1.12-.06,1.1,0,1.1,0A15.7,15.7,0,0,1,50,6.95a10.84,10.84,0,0,1,3.36,1.54,7.46,7.46,0,0,1,2.22,2.4,6.18,6.18,0,0,1,.8,3.12,5.7,5.7,0,0,1-.92,3.2A7.94,7.94,0,0,1,53,19.57,12.34,12.34,0,0,1,49.46,21a16.86,16.86,0,0,1-4.22.52,13,13,0,0,1-1.44-.1q-.88-.1-1.56-.22v13.2h4.44V35H33.8Zm8.44-13.76a15.55,15.55,0,0,0,1.68.24q.88.08,1.56.08a6.08,6.08,0,0,0,4.62-1.74A7.37,7.37,0,0,0,51.76,14a12.25,12.25,0,0,0-.4-3.4A4.82,4.82,0,0,0,50.1,8.43a4.72,4.72,0,0,0-2.24-1.14A14.81,14.81,0,0,0,44.56,7q-.76,0-1.38,0l-.94.08Z"/><path class="cls-1" d="M57.32,34.45h4.44V7.09H57.32V6.53H70.2v.56H65.76V34.45h7.12a7.08,7.08,0,0,0,5.52-2.2,13.47,13.47,0,0,0,2.92-6h.44V35H57.32Z"/><path class="cls-1" d="M83.48,34.45H87L97.8,5.81h1l10.88,28.64h3.56V35H100.88v-.56h4.44l-4.2-11.12H91.84l-4.2,11.12h4.44V35h-8.6Zm13-23.32-4.4,11.64h8.8Z"/><path class="cls-1" d="M114.56,26.41H115A16.06,16.06,0,0,0,116.14,30a10.48,10.48,0,0,0,1.54,2.44A6.84,6.84,0,0,0,119.44,34a7.6,7.6,0,0,0,1.86.76,8.92,8.92,0,0,0,1.8.28q.86,0,1.62,0a8.19,8.19,0,0,0,3.48-.64,6.06,6.06,0,0,0,2.16-1.62,5.83,5.83,0,0,0,1.12-2.12,7.83,7.83,0,0,0,.32-2.1,5.14,5.14,0,0,0-.52-2.4,5.78,5.78,0,0,0-1.32-1.7,7.44,7.44,0,0,0-1.74-1.14,12.06,12.06,0,0,0-1.78-.68l-4.6-1.4a11.85,11.85,0,0,1-4.9-2.64,5.91,5.91,0,0,1-1.66-4.4,8.62,8.62,0,0,1,.64-3.34,7.82,7.82,0,0,1,1.8-2.66,8.39,8.39,0,0,1,2.78-1.76,10.62,10.62,0,0,1,5.88-.4,10.5,10.5,0,0,1,1.62.54l1.22.54a2.69,2.69,0,0,0,1.1.24,1.22,1.22,0,0,0,.7-.14,2.7,2.7,0,0,0,.5-.7h.56v7.24h-.48a11.9,11.9,0,0,0-.82-2.78,8.58,8.58,0,0,0-1.5-2.36A7,7,0,0,0,127.06,7a7,7,0,0,0-3-.62,9.75,9.75,0,0,0-2.12.26,6.7,6.7,0,0,0-2.16.9,5.4,5.4,0,0,0-1.66,1.68,4.84,4.84,0,0,0-.66,2.64A4.28,4.28,0,0,0,118,14a5,5,0,0,0,1.34,1.52,8.22,8.22,0,0,0,1.84,1q1,.42,2.06.74L128,18.85l1.92.64a8.65,8.65,0,0,1,2.26,1.2,7,7,0,0,1,1.88,2.12,6.53,6.53,0,0,1,.78,3.36,9.33,9.33,0,0,1-.7,3.58,8.94,8.94,0,0,1-2,3,9.93,9.93,0,0,1-3.2,2.08,11,11,0,0,1-4.24.78l-1.48,0a11.13,11.13,0,0,1-1.2-.1l-1.12-.18a11.78,11.78,0,0,1-1.24-.3q-.8-.24-1.72-.56a5,5,0,0,0-1.6-.32,1.09,1.09,0,0,0-.82.24,2.05,2.05,0,0,0-.38.64h-.6Z"/><path class="cls-1" d="M134.64,34.45h4.44V7.09h-4.44V6.53h12.88v.56h-4.44V20.17H156.4V7.09H152V6.53h12.88v.56H160.4V34.45h4.44V35H152v-.56h4.44V20.73H143.08V34.45h4.44V35H134.64Z"/></svg>